<svg xmlns="http://www.w3.org/2000/svg" width="394.99" height="1078" viewBox="0 0 394.99 1078">
  <path id="Path_1091" data-name="Path 1091" d="M386.012,471.288v578.121a9.825,9.825,0,1,1-10.579,11.179l-266.507,14.9a4.9,4.9,0,0,1-8.914-3.982l-83.4-104.143a9.828,9.828,0,1,1-7.4-16.915L14.9,775.026a4.921,4.921,0,1,1,3.989-8.771L57.06,734.008,84.438,606.8a9.829,9.829,0,0,1,2.089-18.552l16.225-342.524a4.917,4.917,0,0,1,1.094-9.713,4.816,4.816,0,0,1,.636.063l69.512-218.71a9.83,9.83,0,1,1,16.151-7.509c0,.122-.034.236-.037.361l62.9,44.028a4.914,4.914,0,1,1,5.744,7.627L291.13,317.985c.121,0,.235-.035.36-.035a9.811,9.811,0,0,1,6.377,17.3l83.362,116.99a9.706,9.706,0,0,1,2.349-.317,9.832,9.832,0,0,1,2.434,19.362ZM95.593,604.766l62.145,44.2L374.6,465.783a9.505,9.505,0,0,1-.633-1.9L98.018,595.266a9.713,9.713,0,0,1,.4,2.613A9.817,9.817,0,0,1,95.593,604.766Zm161.148,110.1a9.834,9.834,0,0,1,3.549.683L380.7,471.145a9.809,9.809,0,0,1-5.247-3.811L159.2,650.009l92.885,66.079A9.723,9.723,0,0,1,256.741,714.866ZM383.578,471.625a9,9,0,0,1-1.118-.115L261.842,716.328a9.8,9.8,0,0,1,.5,16.475l120.152,316.925a9.832,9.832,0,0,1,1.779-.319V471.556C384.039,471.573,383.814,471.625,383.578,471.625Zm-8.253,587.228a9.809,9.809,0,0,1,5.539-8.518L260.813,733.661a9.815,9.815,0,0,1-4.073.9,9.712,9.712,0,0,1-4.618-1.2l-144.765,335.6a4.915,4.915,0,0,1,2.222,4.115,4.784,4.784,0,0,1-.061.646Zm-270.667,9.3a4.981,4.981,0,0,1,1.1.131L250.65,732.4a9.727,9.727,0,0,1-.108-15.278L157.826,651.17l-99.2,83.791L12.211,950.7a9.783,9.783,0,0,1,5.568,15.335l83.155,103.847A4.9,4.9,0,0,1,104.658,1068.15ZM20.1,767.507a4.9,4.9,0,0,1-3.467,7.585l-5.6,172.825L56.462,736.788Zm39.126-35.323,97.14-82.057-62.145-44.2a9.508,9.508,0,0,1-8.147,1.449ZM88.563,588.027a9.918,9.918,0,0,1,2.146.25L284.853,335.033a9.607,9.607,0,0,1-2.6-10.554L107.873,243.751a4.9,4.9,0,0,1-3.384,2.035L88.264,588.059C88.364,588.055,88.457,588.027,88.563,588.027Zm17.572-351.434a4.9,4.9,0,0,1,2.638,4.337,4.709,4.709,0,0,1-.177,1.236l174.394,80.74a9.846,9.846,0,0,1,4.472-4.077L183.667,19.067a9.461,9.461,0,0,1-8.183-.674ZM257.05,62.246c-.087,0-.17.025-.254.025a4.922,4.922,0,0,1-4.923-4.925,4.867,4.867,0,0,1,.285-1.584L189.846,12.146a9.817,9.817,0,0,1-4.6,6.171L289.109,318.271c.1-.021.193-.067.292-.091Zm39.4,274.014a9.641,9.641,0,0,1-10.234-.164L92.47,588.841a9.848,9.848,0,0,1,4.947,4.787L373.758,462.058c0-.1-.027-.184-.027-.281a9.844,9.844,0,0,1,5.782-8.948Z" transform="translate(394.99 1078) rotate(180)" fill="#cfd4d8"/>
</svg>
