<svg xmlns="http://www.w3.org/2000/svg" width="2723.835" height="1755.341" viewBox="0 0 2723.835 1755.341">
  <path id="Path_70" data-name="Path 70" d="M6500.762-1787.171v-1371.6a23.29,23.29,0,0,0,21.3-23.167A23.356,23.356,0,0,0,6498.7-3205.3a23.313,23.313,0,0,0-23.036,20.009l-632.29-35.358a11.637,11.637,0,0,0-10.125-5.954,11.694,11.694,0,0,0-11.691,11.689,11.6,11.6,0,0,0,.668,3.713l-197.859,247.079a23.27,23.27,0,0,0-16.042-6.447,23.369,23.369,0,0,0-23.378,23.363,23.294,23.294,0,0,0,21.858,23.215l13.487,416.194a11.679,11.679,0,0,0-9.077,11.377,11.683,11.683,0,0,0,11.679,11.69,11.652,11.652,0,0,0,6.862-2.258l90.564,76.507,64.955,301.813a23.31,23.31,0,0,0-13.586,21.154,23.4,23.4,0,0,0,18.541,22.862l38.494,812.642a11.674,11.674,0,0,0-9.088,11.36,11.684,11.684,0,0,0,11.684,11.684,11.417,11.417,0,0,0,1.509-.149L5997.745-710.22a23.186,23.186,0,0,0-8.424,17.816,23.368,23.368,0,0,0,23.371,23.365,23.356,23.356,0,0,0,23.37-23.365c0-.289-.081-.56-.088-.856l149.236-104.456a11.6,11.6,0,0,0,8.986,4.305,11.685,11.685,0,0,0,11.69-11.682,11.682,11.682,0,0,0-7.048-10.717l76.813-607.651c.288.007.557.083.854.083a23.365,23.365,0,0,0,23.374-23.373,23.228,23.228,0,0,0-8.244-17.676l197.777-277.56a23.029,23.029,0,0,0,5.573.752,23.378,23.378,0,0,0,23.374-23.374A23.308,23.308,0,0,0,6500.762-1787.171ZM5811.74-2103.851l147.439-104.875,514.506,434.613a22.542,22.542,0,0,0-1.5,4.508L5817.493-2081.31a23.045,23.045,0,0,0,.941-6.2A23.29,23.29,0,0,0,5811.74-2103.851Zm382.324-261.212a23.323,23.323,0,0,0,8.42-1.621l285.678,579.85a23.271,23.271,0,0,0-12.449,9.042l-513.071-433.4,220.371-156.772A23.067,23.067,0,0,0,6194.064-2365.062Zm300.923,577.09a21.348,21.348,0,0,0-2.653.273l-286.166-580.832a23.266,23.266,0,0,0,11.265-19.9,23.281,23.281,0,0,0-10.079-19.191l285.063-751.908a23.291,23.291,0,0,0,4.222.758v1370.959C6496.081-1787.848,6495.547-1787.972,6494.987-1787.972Zm-19.58-1393.2a23.271,23.271,0,0,0,13.142,20.208l-284.822,751.312a23.287,23.287,0,0,0-9.662-2.143,23.042,23.042,0,0,0-10.955,2.852l-343.455-796.2a11.661,11.661,0,0,0,5.272-9.763,11.351,11.351,0,0,0-.146-1.531Zm-642.159-22.055a11.812,11.812,0,0,0,2.6-.31l343.762,796.88a23.24,23.24,0,0,0-8.92,18.234,23.2,23.2,0,0,0,8.664,18.014l-219.97,156.468-235.353-198.793L5613.916-2924.58a23.317,23.317,0,0,0,17.771-22.622,23.245,23.245,0,0,0-4.561-13.759l197.286-246.378A11.628,11.628,0,0,0,5833.248-3203.23ZM5632.63-2489.954a11.653,11.653,0,0,0,1.954-6.462,11.64,11.64,0,0,0-10.18-11.533l-13.281-410.029L5718.9-2417.073Zm92.827,83.8,230.466,194.68L5808.484-2106.6a23.277,23.277,0,0,0-13.422-4.28,23.217,23.217,0,0,0-5.906.842Zm69.605,342.014a23.538,23.538,0,0,0,5.092-.594l460.607,600.824a23.211,23.211,0,0,0-7.626,17.155,23.184,23.184,0,0,0,1.459,7.883L5840.874-1247.34a11.618,11.618,0,0,0-8.028-4.829l-38.494-812.042C5794.589-2064.2,5794.811-2064.136,5795.063-2064.136Zm41.689,833.781a11.623,11.623,0,0,0,6.259-10.29,11.172,11.172,0,0,0-.42-2.933l413.751-191.557a23.36,23.36,0,0,0,10.61,9.672L6020.7-714.275a23.209,23.209,0,0,0-8-1.492,23.12,23.12,0,0,0-11.412,3.091ZM6194.8-816.718c-.206-.009-.4-.059-.6-.059a11.677,11.677,0,0,0-11.68,11.685,11.546,11.546,0,0,0,.676,3.758L6035.355-697.854a23.29,23.29,0,0,0-10.914-14.641l246.417-711.644c.241.05.457.158.692.216Zm93.489-650.1a23.111,23.111,0,0,0-11.781-3.3,23.239,23.239,0,0,0-12.5,3.686L5804.33-2066.068a23.364,23.364,0,0,0,11.737-11.358l655.621,312.152c0,.228-.064.436-.064.666a23.354,23.354,0,0,0,13.718,21.23Z" transform="translate(1121.848 7232.298) rotate(-70)" fill="#fff" opacity="0.51"/>
</svg>
