<svg xmlns="http://www.w3.org/2000/svg" width="142.374" height="202.885" viewBox="0 0 142.374 202.885">
  <g id="Group_539" data-name="Group 539" transform="translate(-4873.206 6822.937)">
    <g id="Group_482" data-name="Group 482" transform="translate(4921.252 -6821.148)">
      <path id="Path_67" data-name="Path 67" d="M5199.175-6614.708c-3.521-2.168-6.953-4.276-10.385-6.388-1.174-.722-2.376-1.406-3.507-2.194a1.875,1.875,0,0,1-.726-1.156q-1.668-12.508-3.261-25.03c-.933-7.259-1.838-14.522-2.8-21.776a5.009,5.009,0,0,0-.8-2.026c-5.2-7.843-10.442-15.655-15.637-23.5a6.461,6.461,0,0,1-.6-1.944,10.177,10.177,0,0,0-.425-1.816q-10.972-22.9-22-45.768a2.02,2.02,0,0,1-.1-1.783q11.777-30.6,23.5-61.221a1.3,1.3,0,0,1,1.368-.967c8.272-.425,16.541-.885,24.813-1.335q10.021-.543,20.042-1.087c1.872-.1,3.745-.207,5.617-.34a1.31,1.31,0,0,1,1.315.623c5.668,8,11.368,15.969,17.024,23.974a3.059,3.059,0,0,1,.485,1.744c-.4,11.185-.839,22.367-1.241,33.552a1.458,1.458,0,0,1-.869,1.392c-2.866,1.615-5.692,3.3-8.559,4.908a2.047,2.047,0,0,0-1.072,1.44c-1.659,6.9-3.344,13.8-5,20.7a9.212,9.212,0,0,0-.245,1.885c-.547,20.855-1.129,41.709-1.579,62.564a31.992,31.992,0,0,1-2.215,11.32c-4.385,11.059-8.544,22.208-12.79,33.323C5199.434-6615.354,5199.328-6615.094,5199.175-6614.708Z" transform="translate(-5138.784 6813.048)" fill="#cfd4d8" fill-rule="evenodd"/>
    </g>
    <path id="Path_68" data-name="Path 68" d="M4945.067-6708.227a3.81,3.81,0,0,0-.87.1l-20.354-44.263a3.826,3.826,0,0,0,1.412-2.971,3.83,3.83,0,0,0-1.393-2.957l20.752-54.742a3.975,3.975,0,0,0,.42.023,3.834,3.834,0,0,0,3.834-3.834,3.834,3.834,0,0,0-3.834-3.834,3.839,3.839,0,0,0-3.654,2.67l-44.518-2.49a3.834,3.834,0,0,0-3.56-2.417,3.836,3.836,0,0,0-3.836,3.835,3.827,3.827,0,0,0,.529,1.938l-12.782,15.962a2.788,2.788,0,0,0-1.2-.278,2.811,2.811,0,0,0-2.811,2.812,2.8,2.8,0,0,0,1.922,2.654l.957,29.53c-.023,0-.045-.007-.068-.007a2.811,2.811,0,0,0-2.811,2.811,2.811,2.811,0,0,0,2.811,2.811,2.794,2.794,0,0,0,1.947-.79l6.077,5.341,4.515,20.984a3.825,3.825,0,0,0-1.9,3.3,3.833,3.833,0,0,0,2.75,3.677l2.813,59.376a2.812,2.812,0,0,0-1.729,2.594,2.8,2.8,0,0,0,2.7,2.8l11.689,36.782a3.824,3.824,0,0,0-1.349,2.916,3.835,3.835,0,0,0,3.834,3.835,3.835,3.835,0,0,0,3.835-3.835,3.843,3.843,0,0,0-.035-.488l8.368-5.857a2.791,2.791,0,0,0,1.891.745,2.811,2.811,0,0,0,2.812-2.811,2.8,2.8,0,0,0-1.472-2.457l5.537-43.8a3.835,3.835,0,0,0,3.349-3.8,3.807,3.807,0,0,0-.775-2.3l12.843-16.142a3.82,3.82,0,0,0,1.354.25,3.834,3.834,0,0,0,3.834-3.834A3.835,3.835,0,0,0,4945.067-6708.227Zm-50.932,39.171-2.806-59.235.053-.014,33.412,43.583a3.807,3.807,0,0,0-.817,2.359,3.8,3.8,0,0,0,.065.689l-28.745,13.309A2.8,2.8,0,0,0,4894.136-6669.056Zm-.249-64.756,8.715-6.2,35.926,31.563-44.27-22.873a3.772,3.772,0,0,0,.069-.71A3.819,3.819,0,0,0,4893.887-6733.812Zm33.926,47.616a3.814,3.814,0,0,0-1.5.3l-33.219-43.33a4.074,4.074,0,0,0,.35-.362l47.821,24.708a3.924,3.924,0,0,0-.034.483,3.817,3.817,0,0,0,.912,2.479l-12.771,16.052A3.819,3.819,0,0,0,4927.813-6686.2Zm14.467-21.51-38.071-33.449,15.3-10.883a3.819,3.819,0,0,0,1.913.516,3.872,3.872,0,0,0,.679-.064Zm-63.451-90.965a2.8,2.8,0,0,0-.257-1.16l12.79-15.971a3.811,3.811,0,0,0,1.942.533,3.882,3.882,0,0,0,.851-.1l24.672,57.193a3.815,3.815,0,0,0-1.238,2.816,3.8,3.8,0,0,0,.537,1.95l-15.4,10.953-16.947-14.891-8.369-38.9A2.8,2.8,0,0,0,4878.828-6798.67Zm43.293,39.546a3.842,3.842,0,0,0-.7-.066,3.785,3.785,0,0,0-.9.11l-24.662-57.171a3.823,3.823,0,0,0,1.238-2.335l44.177,2.47a3.829,3.829,0,0,0,1.548,2.378Zm-43.314-4.349c0-.07.021-.137.021-.209a2.8,2.8,0,0,0-.8-1.955l-.71-21.921,6.043,28.089Zm7.652,9.276,14.664,12.884-8.535,6.072a3.823,3.823,0,0,0-2.1-.624l-.089,0Zm8.555,90.027a2.8,2.8,0,0,0,1.1-2.216c0-.081-.017-.156-.023-.233l28.755-13.313a3.846,3.846,0,0,0,.847.764l-17.827,51.483a3.717,3.717,0,0,0-.5-.038,3.872,3.872,0,0,0-.742.074Zm14.63,37.2,16.063-46.389-4.842,38.3a2.81,2.81,0,0,0-2.254,2.755,2.846,2.846,0,0,0,.034.344l-8.228,5.759A3.85,3.85,0,0,0,4909.644-6626.965Z" transform="translate(0 0)" fill="#cfd4d8"/>
  </g>
</svg>
