<svg xmlns="http://www.w3.org/2000/svg" width="464.299" height="74.16" viewBox="0 0 464.299 74.16">
  <g id="logo" transform="translate(-137.482 -93)">
    <rect id="Rectangle_1598" data-name="Rectangle 1598" width="351.474" height="28.302" transform="translate(250.306 115.999)" fill="#49f5a9"/>
    <text id="Dr._ARNOLDS_Dr._KHAN-GANSEN" data-name="Dr. ARNOLDS + 
Dr. KHAN-GANSEN" transform="translate(225.418 122.803)" fill="#001834" font-size="25" font-family="SegoeUI-Bold, Segoe UI" font-weight="700" letter-spacing="0.2em"><tspan x="0" y="0">DR. ARNOLDS + </tspan><tspan x="0" y="33">DR. KHAN-GANSEN</tspan></text>
    <g id="Group_542" data-name="Group 542" transform="translate(137.482 93)">
      <g id="Group_482" data-name="Group 482" transform="translate(17.562 0.654)">
        <path id="Path_67" data-name="Path 67" d="M5160.858-6740.55l-3.8-2.334c-.429-.264-.868-.515-1.282-.8a.684.684,0,0,1-.265-.422q-.611-4.573-1.192-9.149c-.341-2.653-.672-5.309-1.024-7.96a1.829,1.829,0,0,0-.291-.741c-1.9-2.866-3.817-5.722-5.716-8.59a2.381,2.381,0,0,1-.218-.711,3.638,3.638,0,0,0-.155-.664q-4.01-8.37-8.04-16.729a.737.737,0,0,1-.037-.651q4.305-11.186,8.59-22.378a.473.473,0,0,1,.5-.354q4.536-.233,9.07-.488l7.326-.4c.684-.038,1.369-.076,2.053-.125a.478.478,0,0,1,.481.229c2.072,2.922,4.155,5.837,6.222,8.763a1.109,1.109,0,0,1,.178.638c-.145,4.088-.307,8.176-.453,12.264a.535.535,0,0,1-.318.509c-1.048.59-2.081,1.205-3.128,1.794a.748.748,0,0,0-.392.526c-.606,2.523-1.222,5.043-1.829,7.566a3.367,3.367,0,0,0-.089.688c-.2,7.623-.413,15.246-.578,22.869a11.674,11.674,0,0,1-.81,4.138c-1.6,4.043-3.123,8.118-4.675,12.181C5160.953-6740.785,5160.915-6740.69,5160.858-6740.55Z" transform="translate(-5138.784 6813.048)" fill="#49f5a9" fill-rule="evenodd"/>
      </g>
      <path id="Path_68" data-name="Path 68" d="M4899.474-6781.007a1.4,1.4,0,0,0-.318.038l-7.439-16.179a1.4,1.4,0,0,0,.516-1.086,1.4,1.4,0,0,0-.509-1.081l7.586-20.01a1.445,1.445,0,0,0,.153.008,1.4,1.4,0,0,0,1.4-1.4,1.4,1.4,0,0,0-1.4-1.4,1.4,1.4,0,0,0-1.336.976l-16.272-.91a1.4,1.4,0,0,0-1.3-.883,1.4,1.4,0,0,0-1.4,1.4,1.4,1.4,0,0,0,.193.708l-4.672,5.834a1.025,1.025,0,0,0-.438-.1,1.028,1.028,0,0,0-1.027,1.028,1.024,1.024,0,0,0,.7.97l.35,10.794-.025,0a1.027,1.027,0,0,0-1.027,1.027,1.028,1.028,0,0,0,1.027,1.027,1.02,1.02,0,0,0,.712-.289l2.221,1.952,1.65,7.67a1.4,1.4,0,0,0-.694,1.208,1.4,1.4,0,0,0,1.006,1.344l1.028,21.7a1.028,1.028,0,0,0-.632.948,1.025,1.025,0,0,0,.985,1.023l4.273,13.445a1.4,1.4,0,0,0-.493,1.065,1.4,1.4,0,0,0,1.4,1.4,1.4,1.4,0,0,0,1.4-1.4,1.343,1.343,0,0,0-.013-.178l3.059-2.141a1.019,1.019,0,0,0,.691.272,1.028,1.028,0,0,0,1.028-1.027,1.024,1.024,0,0,0-.538-.9l2.024-16.012a1.4,1.4,0,0,0,1.224-1.389,1.389,1.389,0,0,0-.284-.842l4.694-5.9a1.4,1.4,0,0,0,.5.091,1.4,1.4,0,0,0,1.4-1.4A1.4,1.4,0,0,0,4899.474-6781.007Zm-18.617,14.318-1.025-21.652.02,0,12.213,15.931a1.391,1.391,0,0,0-.3.863,1.382,1.382,0,0,0,.024.252l-10.507,4.864A1.021,1.021,0,0,0,4880.856-6766.689Zm-.091-23.67,3.186-2.266,13.132,11.537-16.182-8.361a1.369,1.369,0,0,0,.025-.259A1.4,1.4,0,0,0,4880.766-6790.359Zm12.4,17.405a1.391,1.391,0,0,0-.547.111l-12.143-15.838a1.415,1.415,0,0,0,.127-.132l17.48,9.031a1.407,1.407,0,0,0-.013.177,1.4,1.4,0,0,0,.333.906l-4.668,5.867A1.4,1.4,0,0,0,4893.166-6772.954Zm5.288-7.862-13.916-12.227,5.593-3.978a1.4,1.4,0,0,0,.7.188,1.378,1.378,0,0,0,.248-.024Zm-23.193-33.25a1.012,1.012,0,0,0-.094-.424l4.675-5.837a1.4,1.4,0,0,0,.71.195,1.419,1.419,0,0,0,.311-.036l9.019,20.906a1.393,1.393,0,0,0-.453,1.029,1.392,1.392,0,0,0,.2.713l-5.627,4-6.195-5.442-3.059-14.219A1.023,1.023,0,0,0,4875.261-6814.066Zm15.825,14.455a1.378,1.378,0,0,0-.256-.024,1.373,1.373,0,0,0-.328.041l-9.015-20.9a1.4,1.4,0,0,0,.453-.854l16.148.9a1.4,1.4,0,0,0,.565.87Zm-15.833-1.59c0-.025.007-.05.007-.076a1.022,1.022,0,0,0-.291-.715l-.26-8.013,2.209,10.268Zm2.8,3.391,5.36,4.709-3.12,2.22a1.4,1.4,0,0,0-.766-.228h-.033Zm3.127,32.908a1.022,1.022,0,0,0,.4-.81c0-.029-.006-.057-.009-.085l10.511-4.866a1.429,1.429,0,0,0,.31.279l-6.517,18.818a1.343,1.343,0,0,0-.184-.014,1.422,1.422,0,0,0-.271.027Zm5.348,13.6,5.872-16.957-1.77,14a1.028,1.028,0,0,0-.824,1.007,1.071,1.071,0,0,0,.013.125l-3.007,2.1A1.416,1.416,0,0,0,4886.525-6751.3Z" transform="translate(-4873.206 6822.937)" fill="#49f5a9"/>
    </g>
  </g>
</svg>
