<svg xmlns="http://www.w3.org/2000/svg" width="277.518" height="44.327" viewBox="0 0 277.518 44.327">
  <g id="Group_547" data-name="Group 547" transform="translate(-191.482 -5736)">
    <rect id="Rectangle_1599" data-name="Rectangle 1599" width="210.081" height="16.917" transform="translate(258.919 5749.748)" fill="#49f5a9"/>
    <text id="Dr._ARNOLDS_Dr._KHAN-GANSEN" data-name="Dr. ARNOLDS + 
Dr. KHAN-GANSEN" transform="translate(244.042 5753.066)" fill="#fff" font-size="14" font-family="SegoeUI-Bold, Segoe UI" font-weight="700" letter-spacing="0.2em"><tspan x="0" y="0">DR. ARNOLDS + </tspan><tspan x="0" y="19">DR. KHAN-GANSEN</tspan></text>
    <g id="Group_543" data-name="Group 543" transform="translate(191.482 5736)">
      <g id="Group_482" data-name="Group 482" transform="translate(10.497 0.391)">
        <path id="Path_67" data-name="Path 67" d="M5151.978-6769.715l-2.269-1.395c-.256-.158-.519-.308-.766-.48a.41.41,0,0,1-.159-.252q-.365-2.733-.712-5.469c-.2-1.586-.4-3.173-.612-4.758a1.1,1.1,0,0,0-.174-.443c-1.136-1.713-2.281-3.42-3.417-5.134a1.427,1.427,0,0,1-.13-.425,2.183,2.183,0,0,0-.093-.4q-2.4-5-4.806-10a.443.443,0,0,1-.022-.39q2.573-6.686,5.134-13.376a.282.282,0,0,1,.3-.211c1.808-.093,3.614-.193,5.422-.292l4.378-.237c.409-.023.818-.045,1.227-.075a.286.286,0,0,1,.288.137c1.238,1.746,2.483,3.489,3.719,5.237a.661.661,0,0,1,.106.381c-.086,2.443-.183,4.887-.271,7.33a.32.32,0,0,1-.19.3c-.626.353-1.244.72-1.87,1.072a.446.446,0,0,0-.234.314c-.362,1.509-.73,3.015-1.093,4.522a1.985,1.985,0,0,0-.053.412c-.12,4.556-.247,9.112-.346,13.669a6.971,6.971,0,0,1-.483,2.473c-.958,2.417-1.867,4.853-2.795,7.281C5152.035-6769.855,5152.012-6769.8,5151.978-6769.715Z" transform="translate(-5138.784 6813.048)" fill="#49f5a9" fill-rule="evenodd"/>
      </g>
      <path id="Path_68" data-name="Path 68" d="M4888.906-6797.875a.842.842,0,0,0-.19.022l-4.447-9.67a.838.838,0,0,0,.309-.649.835.835,0,0,0-.3-.646l4.534-11.96a.82.82,0,0,0,.092,0,.838.838,0,0,0,.837-.837.838.838,0,0,0-.837-.838.838.838,0,0,0-.8.583l-9.727-.544a.837.837,0,0,0-.778-.528.838.838,0,0,0-.838.837.838.838,0,0,0,.116.424l-2.792,3.487a.606.606,0,0,0-.262-.061.614.614,0,0,0-.614.614.611.611,0,0,0,.42.579l.209,6.452h-.015a.614.614,0,0,0-.614.614.614.614,0,0,0,.614.614.609.609,0,0,0,.426-.172l1.328,1.167.986,4.585a.837.837,0,0,0-.415.722.838.838,0,0,0,.6.8l.614,12.973a.615.615,0,0,0-.377.566.613.613,0,0,0,.588.612l2.554,8.037a.834.834,0,0,0-.294.637.837.837,0,0,0,.837.838.838.838,0,0,0,.838-.838.769.769,0,0,0-.008-.106l1.829-1.28a.607.607,0,0,0,.413.163.614.614,0,0,0,.614-.614.613.613,0,0,0-.322-.537l1.21-9.57a.838.838,0,0,0,.731-.83.831.831,0,0,0-.169-.5l2.806-3.527a.829.829,0,0,0,.3.055.838.838,0,0,0,.838-.838A.838.838,0,0,0,4888.906-6797.875Zm-11.127,8.558-.613-12.942a.048.048,0,0,0,.011,0l7.3,9.522a.832.832,0,0,0-.178.516.805.805,0,0,0,.014.15l-6.28,2.907A.623.623,0,0,0,4877.779-6789.316Zm-.054-14.148,1.9-1.354,7.849,6.9-9.672-5a.845.845,0,0,0,.015-.155A.841.841,0,0,0,4877.725-6803.465Zm7.412,10.4a.838.838,0,0,0-.327.066l-7.258-9.467a.776.776,0,0,0,.076-.079l10.448,5.4a.831.831,0,0,0-.007.105.835.835,0,0,0,.2.542l-2.79,3.507A.839.839,0,0,0,4885.136-6793.062Zm3.161-4.7-8.317-7.308,3.343-2.377a.841.841,0,0,0,.418.112.817.817,0,0,0,.148-.014Zm-13.863-19.874a.606.606,0,0,0-.056-.254l2.794-3.489a.837.837,0,0,0,.424.117.862.862,0,0,0,.186-.021l5.391,12.5a.833.833,0,0,0-.271.615.835.835,0,0,0,.117.426l-3.363,2.393-3.7-3.253-1.829-8.5A.611.611,0,0,0,4874.434-6817.635Zm9.459,8.64a.876.876,0,0,0-.153-.015.813.813,0,0,0-.2.024l-5.389-12.491a.832.832,0,0,0,.271-.51l9.652.54a.838.838,0,0,0,.338.52Zm-9.463-.95c0-.015,0-.029,0-.045a.61.61,0,0,0-.174-.427l-.155-4.789,1.32,6.137Zm1.672,2.027,3.2,2.815-1.864,1.327a.837.837,0,0,0-.458-.136h-.02Zm1.869,19.669a.611.611,0,0,0,.241-.484c0-.018,0-.034-.005-.051l6.282-2.909a.861.861,0,0,0,.185.167l-3.9,11.248a.814.814,0,0,0-.11-.008.849.849,0,0,0-.162.016Zm3.2,8.128,3.51-10.135-1.058,8.368a.614.614,0,0,0-.493.6.632.632,0,0,0,.008.075l-1.8,1.258A.837.837,0,0,0,4881.167-6780.121Z" transform="translate(-4873.206 6822.937)" fill="#49f5a9"/>
    </g>
  </g>
</svg>
